<svg xmlns="http://www.w3.org/2000/svg" viewBox="0 0 120 120" fill="none">
  <!-- Soft circular glow -->
  <circle cx="60" cy="60" r="56" fill="#FFF5F5" opacity="0.5"/>

  <!-- Shopping bag body -->
  <path d="M30 48 L26 102 C26 106 29 109 33 109 L87 109 C91 109 94 106 94 102 L90 48 C90 46 88 44 86 44 L34 44 C32 44 30 46 30 48Z" fill="#F8C4D0" stroke="#E8A0B4" stroke-width="1.5"/>

  <!-- Bag top fold -->
  <path d="M30 48 L90 48" stroke="#E8A0B4" stroke-width="1" opacity="0.5"/>

  <!-- Handles -->
  <path d="M44 44 C44 30 46 22 60 22 C74 22 76 30 76 44" fill="none" stroke="#8B6F5E" stroke-width="3.5" stroke-linecap="round"/>

  <!-- Heart -->
  <path d="M60 58 C60 58 48 52 48 62 C48 72 60 80 60 80 C60 80 72 72 72 62 C72 52 60 58 60 58Z" fill="#FFF5F0" stroke="#F0D0D8" stroke-width="0.5"/>

  <!-- Sparkles -->
  <g fill="#E8C8A0" opacity="0.7">
    <path d="M98 28 L100 22 L102 28 L108 30 L102 32 L100 38 L98 32 L92 30Z"/>
    <path d="M20 70 L21.5 66 L23 70 L27 71.5 L23 73 L21.5 77 L20 73 L16 71.5Z" transform="scale(0.7) translate(14, 14)"/>
    <path d="M85 90 L86 87 L87 90 L90 91 L87 92 L86 95 L85 92 L82 91Z" transform="scale(0.6) translate(50, 20)"/>
  </g>

  <!-- Small dots -->
  <circle cx="25" cy="88" r="1.5" fill="#F0C8D0" opacity="0.6"/>
  <circle cx="95" cy="75" r="1" fill="#F0C8D0" opacity="0.4"/>
  <circle cx="38" cy="20" r="1.2" fill="#E8C8A0" opacity="0.5"/>
</svg>